<svg aria-hidden="true" style="width:0;height:0;position:absolute;overflow:hidden" xmlns="http://www.w3.org/2000/svg"><defs><symbol id="instagram" viewBox="0 0 32 32"><path fill="#fff" style="fill:var(--color1,#fff)" d="M10.4 2.667h11.2a7.733 7.733 0 0 1 7.733 7.733v11.2a7.733 7.733 0 0 1-7.733 7.733H10.4A7.733 7.733 0 0 1 2.667 21.6V10.4A7.733 7.733 0 0 1 10.4 2.667zm-.267 2.666a4.8 4.8 0 0 0-4.8 4.8v11.733a4.8 4.8 0 0 0 4.8 4.8h11.733a4.8 4.8 0 0 0 4.8-4.8V10.133a4.8 4.8 0 0 0-4.8-4.8H10.133zm12.867 2a1.667 1.667 0 1 1 0 3.333 1.667 1.667 0 0 1 0-3.333zm-7 2a6.667 6.667 0 1 1 0 13.334 6.667 6.667 0 0 1 0-13.334zM16 12a4 4 0 1 0 0 8 4 4 0 0 0 0-8z"/></symbol><symbol id="twitter" viewBox="0 0 41 32"><path fill="#fff" style="fill:var(--color1,#fff)" d="M40.394 3.788a16.131 16.131 0 0 1-4.64 1.272A8.103 8.103 0 0 0 39.306.591a16.164 16.164 0 0 1-5.13 1.96A8.068 8.068 0 0 0 28.28 0a8.08 8.08 0 0 0-8.079 8.078c0 .633.072 1.25.209 1.841-6.714-.337-12.667-3.553-16.651-8.441a8.044 8.044 0 0 0-1.094 4.061 8.074 8.074 0 0 0 3.594 6.724A8.036 8.036 0 0 1 2.6 11.252l-.001.102a8.083 8.083 0 0 0 6.48 7.921 8.076 8.076 0 0 1-3.648.138 8.086 8.086 0 0 0 7.546 5.61 16.207 16.207 0 0 1-10.033 3.458c-.652 0-1.295-.038-1.927-.113a22.865 22.865 0 0 0 12.383 3.63c14.859 0 22.985-12.31 22.985-22.985 0-.35-.008-.699-.024-1.045a16.406 16.406 0 0 0 4.031-4.182z"/></symbol></defs></svg>