<svg aria-hidden="true" style="position: absolute; width: 0; height: 0; overflow: hidden;" version="1.1" xmlns="http://www.w3.org/2000/svg" xmlns:xlink="http://www.w3.org/1999/xlink">
<defs>
<symbol id="instagram" viewBox="0 0 32 32">
<path fill="#fff" style="fill: var(--color1, #fff)" d="M10.4 2.667h11.2c4.271 0 7.733 3.462 7.733 7.733v11.2c0 4.271-3.462 7.733-7.733 7.733h-11.2c-4.271 0-7.733-3.462-7.733-7.733v-11.2c0-4.271 3.462-7.733 7.733-7.733zM10.133 5.333c-2.651 0-4.8 2.149-4.8 4.8v11.733c0 2.651 2.149 4.8 4.8 4.8h11.733c2.651 0 4.8-2.149 4.8-4.8v-11.733c0-2.651-2.149-4.8-4.8-4.8h-11.733zM23 7.333c0.921 0 1.667 0.746 1.667 1.667s-0.746 1.667-1.667 1.667c-0.921 0-1.667-0.746-1.667-1.667s0.746-1.667 1.667-1.667zM16 9.333c3.682 0 6.667 2.985 6.667 6.667s-2.985 6.667-6.667 6.667c-3.682 0-6.667-2.985-6.667-6.667s2.985-6.667 6.667-6.667zM16 12c-2.209 0-4 1.791-4 4s1.791 4 4 4 4-1.791 4-4c0-2.209-1.791-4-4-4z"></path>
</symbol>
<symbol id="twitter" viewBox="0 0 41 32">
<path fill="#fff" style="fill: var(--color1, #fff)" d="M40.394 3.788c-1.449 0.643-3.006 1.077-4.64 1.272 1.668-1 2.949-2.583 3.552-4.469-1.561 0.926-3.29 1.598-5.13 1.96-1.474-1.57-3.573-2.551-5.896-2.551-4.461 0-8.079 3.617-8.079 8.078 0 0.633 0.072 1.25 0.209 1.841-6.714-0.337-12.667-3.553-16.651-8.441-0.695 1.193-1.094 2.581-1.094 4.061 0 2.803 1.426 5.275 3.594 6.724-1.324-0.042-2.57-0.405-3.659-1.011-0.001 0.034-0.001 0.067-0.001 0.102 0 3.914 2.785 7.179 6.48 7.921-0.678 0.185-1.392 0.283-2.128 0.283-0.521 0-1.027-0.051-1.52-0.145 1.028 3.209 4.011 5.545 7.546 5.61-2.765 2.167-6.248 3.458-10.033 3.458-0.652 0-1.295-0.038-1.927-0.113 3.575 2.292 7.821 3.63 12.383 3.63 14.859 0 22.985-12.31 22.985-22.985 0-0.35-0.008-0.699-0.024-1.045 1.579-1.139 2.948-2.562 4.031-4.182z"></path>
</symbol>
</defs>
</svg>
